<?xml version="1.0" encoding="UTF-8"?>
<svg xmlns="http://www.w3.org/2000/svg" xmlns:xlink="http://www.w3.org/1999/xlink" width="1700.98pt" height="1005.12pt" viewBox="0 0 1700.98 1005.12" version="1.1">
<defs>
<clipPath id="clip1">
  <path d="M 602 326 L 1154 326 L 1154 1005.121094 L 602 1005.121094 Z M 602 326 "/>
</clipPath>
<clipPath id="clip2">
  <path d="M 1375 312 L 1700.980469 312 L 1700.980469 594 L 1375 594 Z M 1375 312 "/>
</clipPath>
</defs>
<g id="surface1">
<path style=" stroke:none;fill-rule:nonzero;fill:rgb(92.89856%,10.998535%,14.099121%);fill-opacity:1;" d="M 873.082031 81.214844 C 868.28125 77.375 848.605469 98.019531 814.082031 143.097656 C 779.539063 188.199219 738.769531 261.59375 691.75 363.28125 L 693.195313 363.28125 C 733.492188 355.613281 763.230469 349.859375 782.40625 346.019531 C 801.589844 342.1875 817.902344 341.21875 831.34375 343.136719 C 837.097656 343.136719 841.171875 345.308594 843.582031 349.621094 C 845.976563 353.933594 846.214844 358.734375 844.296875 364.015625 C 842.375 369.292969 838.542969 374.097656 832.789063 378.410156 C 827.015625 382.71875 819.34375 384.875 809.753906 384.875 C 799.195313 384.875 781.695313 386.792969 757.234375 390.628906 C 732.757813 394.464844 704.703125 399.742188 673.046875 406.464844 C 642.34375 478.875 618.355469 542.167969 601.097656 596.378906 C 583.816406 650.597656 571.339844 696.882813 563.667969 735.246094 C 554.058594 780.34375 548.308594 819.195313 546.40625 851.820313 C 550.242188 850.855469 554.078125 851.328125 557.910156 853.265625 C 564.636719 856.128906 568.472656 863.328125 569.421875 874.835938 C 568.472656 888.261719 562.480469 895.695313 551.445313 897.160156 C 540.414063 898.582031 530.566406 891.621094 521.945313 876.277344 C 516.175781 865.71875 514.257813 846.289063 516.175781 817.992188 C 518.09375 789.695313 523.847656 755.152344 533.457031 714.382813 C 543.042969 673.613281 555.992188 628.019531 572.308594 577.605469 C 588.601563 527.1875 607.800781 474.472656 629.867188 419.417969 C 629.867188 418.46875 630.101563 417.734375 630.578125 417.261719 C 631.054688 416.785156 631.308594 415.582031 631.308594 413.644531 C 607.324219 418.449219 583.339844 423.253906 559.355469 428.039063 C 535.355469 432.84375 512.339844 437.644531 490.273438 442.429688 C 444.222656 452.988281 399.617188 463.859375 356.433594 475.019531 C 313.253906 486.179688 273.925781 495.660156 238.433594 503.460938 C 231.710938 519.828125 225.71875 535.210938 220.441406 549.601563 C 215.160156 563.996094 210.613281 576.472656 206.777344 587.03125 C 201.972656 599.503906 197.664063 610.539063 193.824219 620.128906 C 200.53125 615.34375 205.808594 611.011719 209.644531 607.175781 C 213.480469 604.292969 216.367188 602.375 218.285156 601.425781 C 220.203125 600.476563 220.203125 602.390625 218.285156 607.175781 C 216.367188 612.933594 213.734375 620.367188 210.375 629.480469 C 207.015625 638.59375 203.890625 647.949219 201.007813 657.539063 C 198.117188 667.144531 195.011719 676.496094 191.652344 685.613281 C 188.292969 694.730469 185.660156 702.164063 183.742188 707.898438 C 182.792969 711.753906 179.90625 713.433594 175.121094 712.957031 C 170.316406 712.484375 165.511719 710.3125 160.726563 706.476563 C 155.921875 702.636719 152.085938 696.867188 149.203125 689.195313 C 146.316406 681.523438 146.332031 672.40625 149.21875 661.847656 C 151.117188 651.308594 156.871094 632.367188 166.480469 605.023438 C 176.070313 577.679688 188.070313 545.765625 202.464844 509.304688 C 192.855469 511.242188 184.214844 512.683594 176.546875 513.652344 C 168.875 514.621094 161.203125 515.097656 153.527344 515.097656 C 116.121094 517.03125 85.414063 515.332031 61.410156 510.015625 C 37.449219 504.722656 22.105469 497.707031 15.382813 489.011719 C 9.628906 482.253906 8.421875 475.257813 11.765625 468.0625 C 15.144531 460.863281 20.660156 459.675781 28.328125 464.460938 C 33.136719 468.296875 42.726563 471.660156 57.101563 474.542969 C 71.515625 477.433594 90.21875 478.855469 113.234375 478.855469 C 127.628906 478.855469 143.683594 478.105469 161.4375 476.609375 C 179.195313 475.109375 198.136719 472.351563 218.285156 468.332031 C 228.84375 440.535156 239.878906 412.21875 251.386719 383.429688 C 262.890625 354.644531 274.890625 326.347656 287.371094 298.53125 C 300.796875 268.792969 314.953125 238.796875 329.820313 208.585938 C 344.6875 178.371094 359.066406 150.296875 372.984375 124.394531 C 386.902344 98.492188 400.09375 76.191406 412.566406 57.484375 C 425.027344 38.777344 435.585938 25.574219 444.222656 17.902344 C 450.945313 12.148438 457.648438 9.515625 464.371094 9.992188 C 471.09375 10.464844 476.609375 12.382813 480.921875 15.746094 C 485.230469 19.105469 488.117188 23.417969 489.558594 28.695313 C 490.984375 33.976563 490.273438 38.050781 487.402344 40.914063 C 478.765625 45.722656 460.773438 63.949219 433.425781 95.605469 C 406.082031 127.28125 377.550781 176.199219 347.8125 242.394531 C 332.449219 275.988281 316.613281 312.210938 300.320313 351.0625 C 284.007813 389.917969 269.136719 427.085938 255.714844 462.582031 C 282.566406 456.824219 313.507813 450.105469 348.527344 442.429688 C 383.539063 434.761719 419.03125 426.851563 455.019531 418.703125 C 491.003906 410.554688 526.019531 402.632813 560.070313 394.957031 C 594.117188 387.285156 623.636719 380.5625 648.585938 374.789063 C 668.71875 326.824219 689.339844 283.421875 710.457031 244.570313 C 731.574219 205.71875 751.484375 171.90625 770.1875 143.117188 C 788.894531 114.328125 805.441406 91.078125 819.835938 73.320313 C 834.230469 55.566406 845.261719 43.820313 852.933594 38.050781 C 869.230469 24.625 883.625 21.992188 896.101563 30.140625 C 908.574219 38.285156 912.886719 49.558594 909.050781 63.949219 C 905.210938 77.394531 898.253906 88.191406 888.1875 96.339844 C 878.105469 104.484375 871.164063 107.609375 867.332031 105.691406 C 865.390625 103.769531 866.363281 99.699219 870.199219 93.449219 C 874.035156 87.222656 874.984375 83.148438 873.082031 81.214844 "/>
<path style=" stroke:none;fill-rule:nonzero;fill:rgb(92.89856%,10.998535%,14.099121%);fill-opacity:1;" d="M 639.800781 421.175781 L 639.800781 421.332031 L 639.085938 423.113281 C 617.125 477.90625 597.839844 530.914063 581.761719 580.660156 C 565.609375 630.585938 552.609375 676.34375 543.125 716.660156 C 533.695313 756.675781 527.964844 790.996094 526.089844 818.660156 C 523.871094 851.367188 527.355469 865.453125 530.664063 871.511719 C 536.570313 882.019531 542.644531 887.398438 548.660156 887.398438 C 549.152344 887.398438 549.660156 887.367188 550.175781 887.304688 C 553.261719 886.890625 558.433594 886.210938 559.449219 874.882813 C 558.960938 869.875 557.605469 863.933594 554.011719 862.40625 L 553.4375 862.132813 C 551.742188 861.28125 550.375 861.070313 548.835938 861.453125 L 535.699219 864.769531 L 536.484375 851.242188 C 538.402344 818.296875 544.273438 778.589844 553.9375 733.234375 C 561.644531 694.707031 574.324219 647.648438 591.625 593.363281 C 608.886719 539.164063 633.199219 474.972656 663.898438 402.585938 L 665.917969 397.820313 L 670.980469 396.746094 C 702.679688 390.015625 731.183594 384.652344 755.699219 380.8125 C 780.898438 376.855469 798.582031 374.9375 809.753906 374.9375 C 817.101563 374.9375 822.851563 373.425781 826.839844 370.445313 C 830.980469 367.347656 833.714844 364.035156 834.957031 360.621094 C 836.128906 357.386719 835.585938 355.683594 834.894531 354.441406 C 834.5625 353.84375 834.128906 353.070313 831.34375 353.070313 L 830.636719 353.070313 L 829.941406 352.972656 C 817.722656 351.226563 802.328125 352.167969 784.355469 355.765625 C 765.253906 359.585938 735.207031 365.398438 695.054688 373.042969 L 694.132813 373.21875 L 676.210938 373.21875 L 682.730469 359.113281 C 729.847656 257.214844 771.386719 182.503906 806.195313 137.058594 C 853.097656 75.808594 863.601563 70.824219 871.679688 70.824219 C 874.507813 70.824219 877.132813 71.730469 879.28125 73.449219 L 879.753906 73.820313 L 880.175781 74.253906 C 883.507813 77.648438 884.636719 81.996094 883.570313 87.238281 C 891.175781 80.558594 896.390625 72.050781 899.46875 61.3125 C 902.171875 51.089844 899.535156 44.253906 890.664063 38.460938 C 887.574219 36.441406 884.457031 35.457031 881.136719 35.457031 C 874.878906 35.457031 867.515625 38.910156 859.253906 45.71875 L 858.910156 45.988281 C 854.085938 49.617188 844.734375 58.390625 827.558594 79.578125 C 813.40625 97.03125 796.910156 120.230469 778.519531 148.53125 C 760.023438 176.996094 740.0625 210.90625 719.1875 249.3125 C 698.316406 287.714844 677.644531 331.222656 657.75 378.636719 L 655.78125 383.328125 L 650.828125 384.472656 C 626.085938 390.195313 597.109375 396.796875 562.253906 404.648438 C 528.207031 412.320313 493.191406 420.25 457.214844 428.394531 C 421.1875 436.550781 385.335938 444.539063 350.648438 452.140625 C 314.285156 460.105469 283.914063 466.699219 257.792969 472.296875 L 239.96875 476.117188 L 246.417969 459.0625 C 259.824219 423.628906 274.875 386 291.15625 347.214844 C 307.347656 308.609375 323.371094 271.949219 338.773438 238.261719 C 368.738281 171.566406 398.0625 121.367188 425.90625 89.113281 C 459.65625 50.039063 473.355469 38.152344 480.332031 33.589844 C 480.335938 33.164063 480.273438 32.425781 479.964844 31.285156 C 479.09375 28.101563 477.453125 25.644531 474.808594 23.582031 C 472.066406 21.441406 468.421875 20.238281 463.667969 19.902344 C 459.679688 19.621094 455.375 21.453125 450.753906 25.390625 C 442.804688 32.46875 432.742188 45.117188 420.835938 62.992188 C 408.621094 81.308594 395.46875 103.546875 381.734375 129.097656 C 368.15625 154.375 353.6875 182.59375 338.734375 212.972656 C 323.976563 242.960938 309.738281 273.125 296.421875 302.617188 C 283.992188 330.335938 271.941406 358.773438 260.609375 387.117188 C 249.273438 415.488281 238.15625 444 227.570313 471.859375 L 225.621094 477.003906 L 220.226563 478.078125 C 199.804688 482.152344 180.304688 484.988281 162.273438 486.511719 C 144.328125 488.023438 127.824219 488.792969 113.234375 488.792969 C 89.285156 488.792969 70.285156 487.320313 55.152344 484.285156 C 39.296875 481.105469 28.949219 477.398438 22.683594 472.652344 C 21.96875 472.234375 21.410156 471.96875 21 471.800781 C 20.925781 471.9375 20.84375 472.097656 20.757813 472.285156 C 19.375 475.265625 19.207031 478.175781 22.945313 482.570313 L 23.242188 482.933594 C 26.191406 486.75 35.351563 494.082031 63.554688 500.3125 C 80.390625 504.042969 101.078125 505.933594 125.046875 505.933594 C 133.855469 505.933594 143.265625 505.675781 153.019531 505.171875 L 153.527344 505.160156 C 160.800781 505.160156 168.125 504.699219 175.300781 503.792969 C 182.777344 502.851563 191.257813 501.425781 200.503906 499.5625 L 218.421875 495.953125 L 211.710938 512.953125 C 197.394531 549.210938 185.332031 581.292969 175.855469 608.308594 C 166.46875 635.035156 160.796875 653.640625 159 663.613281 L 158.804688 664.46875 C 156.488281 672.933594 156.386719 680.078125 158.5 685.695313 C 160.742188 691.65625 163.578125 696.035156 166.925781 698.707031 C 169.75 700.972656 172.441406 702.375 174.941406 702.890625 C 176.882813 697.171875 179.363281 690.214844 182.328125 682.171875 C 185.546875 673.441406 188.628906 664.195313 191.488281 654.679688 C 194.257813 645.472656 197.28125 636.367188 200.488281 627.574219 C 200.195313 627.789063 199.898438 628 199.597656 628.214844 L 172.011719 647.910156 L 184.597656 616.4375 C 188.28125 607.230469 192.492188 596.472656 197.46875 583.550781 C 201.300781 573 205.84375 560.546875 211.109375 546.179688 C 216.457031 531.597656 222.558594 515.957031 229.242188 499.683594 L 231.21875 494.871094 L 236.300781 493.753906 C 271.46875 486.027344 311.050781 476.488281 353.945313 465.398438 C 397.265625 454.203125 442.386719 443.214844 488.050781 432.746094 L 488.164063 432.722656 C 510.683594 427.835938 533.976563 422.980469 557.40625 418.292969 C 581.214844 413.542969 605.015625 408.777344 628.820313 404.007813 L 641.246094 401.519531 L 641.246094 413.644531 C 641.246094 415.761719 641.058594 418.5625 639.800781 421.175781 Z M 548.660156 907.277344 C 534.929688 907.277344 523.027344 898.484375 513.28125 881.148438 C 506.472656 868.683594 504.191406 847.835938 506.261719 817.320313 C 508.210938 788.570313 514.105469 753.171875 523.78125 712.101563 C 533.390625 671.265625 546.535156 624.980469 562.851563 574.542969 C 577.980469 527.734375 595.917969 478.085938 616.226563 426.796875 C 597.921875 430.464844 579.609375 434.128906 561.300781 437.78125 C 538.003906 442.445313 514.835938 447.269531 492.441406 452.132813 C 446.972656 462.554688 402.050781 473.492188 358.917969 484.640625 C 317.84375 495.257813 279.773438 504.46875 245.660156 512.039063 C 239.839844 526.351563 234.503906 540.117188 229.769531 553.023438 C 224.492188 567.40625 219.949219 579.871094 216.117188 590.421875 L 216.050781 590.601563 C 215.890625 591.007813 215.738281 591.414063 215.578125 591.816406 C 216.734375 591.441406 217.90625 591.25 219.082031 591.25 C 222.582031 591.25 225.839844 592.972656 227.792969 595.855469 C 231.304688 601.050781 229.078125 606.945313 227.617188 610.597656 C 225.628906 616.550781 222.964844 624.058594 219.699219 632.917969 C 216.421875 641.800781 213.335938 651.046875 210.519531 660.402344 C 207.546875 670.300781 204.335938 679.941406 200.972656 689.050781 C 197.808594 697.640625 195.214844 704.9375 193.269531 710.742188 C 191.203125 718.300781 184.871094 722.972656 176.632813 722.972656 C 175.828125 722.972656 174.988281 722.929688 174.140625 722.847656 C 167.425781 722.183594 160.816406 719.285156 154.511719 714.226563 C 148.34375 709.300781 143.421875 702.050781 139.898438 692.691406 C 136.324219 683.183594 136.195313 672.070313 139.519531 659.652344 C 141.601563 648.433594 147.355469 629.472656 157.105469 601.726563 C 165.1875 578.679688 175.128906 552 186.71875 522.242188 C 183.621094 522.726563 180.640625 523.152344 177.789063 523.511719 C 169.875 524.511719 161.804688 525.023438 153.789063 525.03125 C 143.789063 525.546875 134.121094 525.808594 125.046875 525.808594 C 99.636719 525.808594 77.503906 523.757813 59.265625 519.71875 C 32.878906 513.890625 15.996094 505.890625 7.664063 495.277344 C -0.4375 485.648438 -2.1875 474.503906 2.75 463.875 C 7.75 453.234375 15.800781 451.652344 20.15625 451.652344 C 24.472656 451.652344 28.867188 453.082031 33.589844 456.027344 L 34.082031 456.335938 L 34.53125 456.695313 C 36.132813 457.972656 41.726563 461.320313 59.058594 464.800781 C 72.695313 467.53125 90.925781 468.917969 113.234375 468.917969 C 127.269531 468.917969 143.207031 468.175781 160.605469 466.703125 C 176.316406 465.382813 193.226563 463.007813 210.960938 459.636719 C 220.992188 433.316406 231.472656 406.464844 242.160156 379.742188 C 253.585938 351.148438 265.75 322.453125 278.304688 294.464844 C 291.71875 264.742188 306.046875 234.382813 320.902344 204.195313 C 335.957031 173.605469 350.539063 145.171875 364.230469 119.6875 C 378.257813 93.585938 391.738281 70.800781 404.300781 51.972656 C 417.359375 32.359375 428.261719 18.78125 437.625 10.46875 L 437.761719 10.351563 C 446.476563 2.890625 455.71875 -0.578125 465.070313 0.078125 C 473.765625 0.691406 481.152344 3.328125 487.03125 7.910156 C 493.058594 12.609375 497.132813 18.71875 499.144531 26.074219 C 502.316406 37.832031 497.554688 44.820313 494.429688 47.941406 L 493.449219 48.925781 L 492.234375 49.601563 C 487.96875 51.972656 475.632813 61.945313 440.945313 102.101563 C 414.363281 132.894531 386.074219 181.46875 356.878906 246.464844 C 341.527344 280.023438 325.59375 316.492188 309.484375 354.90625 C 295.886719 387.300781 283.152344 418.871094 271.527344 449.015625 C 293.394531 444.300781 318.074219 438.929688 346.394531 432.726563 C 381.035156 425.136719 416.84375 417.160156 452.824219 409.011719 C 488.8125 400.863281 523.832031 392.9375 557.882813 385.261719 C 590.410156 377.9375 617.796875 371.699219 641.402344 366.25 C 660.945313 320.042969 681.230469 277.535156 701.726563 239.824219 C 722.84375 200.960938 743.074219 166.605469 761.855469 137.703125 C 780.621094 108.820313 797.53125 85.054688 812.117188 67.0625 C 827.03125 48.664063 838.375 36.617188 846.785156 30.242188 C 858.640625 20.515625 870.195313 15.582031 881.136719 15.582031 C 888.332031 15.582031 895.195313 17.679688 901.53125 21.820313 C 917.710938 32.382813 923.628906 47.835938 918.652344 66.511719 L 918.605469 66.679688 C 914.21875 82.058594 906.085938 94.632813 894.441406 104.058594 C 884.070313 112.4375 876.492188 116.171875 869.855469 116.171875 C 867.347656 116.171875 865.003906 115.636719 862.886719 114.578125 L 861.464844 113.867188 L 860.335938 112.75 C 858.453125 110.886719 857.253906 108.722656 856.734375 106.269531 C 848.972656 114.976563 837.84375 128.410156 821.972656 149.140625 C 790.023438 190.855469 751.988281 258.441406 708.824219 350.183594 C 740.246094 344.179688 764.292969 339.511719 780.457031 336.277344 C 793.847656 333.597656 806.136719 332.242188 816.972656 332.242188 C 822.285156 332.242188 827.367188 332.566406 832.097656 333.207031 C 841.054688 333.425781 848.191406 337.507813 852.257813 344.769531 C 856.058594 351.621094 856.527344 359.4375 853.636719 367.40625 C 851.050781 374.519531 846.042969 380.894531 838.742188 386.359375 C 831.234375 391.972656 821.480469 394.8125 809.753906 394.8125 C 799.765625 394.8125 782.613281 396.707031 758.777344 400.445313 C 735.917969 404.027344 709.496094 408.957031 680.175781 415.113281 C 650.671875 484.988281 627.257813 546.964844 610.566406 599.394531 C 593.476563 653.007813 580.972656 699.371094 573.410156 737.191406 L 573.382813 737.316406 C 564.898438 777.144531 559.40625 812.402344 557.023438 842.308594 C 558.738281 842.78125 560.4375 843.429688 562.109375 844.253906 C 572.273438 848.734375 578.0625 858.742188 579.324219 874.019531 L 579.386719 874.773438 L 579.332031 875.535156 C 577.59375 900.085938 561.933594 905.792969 552.75 907.007813 C 551.363281 907.1875 550 907.277344 548.660156 907.277344 "/>
<path style=" stroke:none;fill-rule:nonzero;fill:rgb(92.89856%,10.998535%,14.099121%);fill-opacity:1;" d="M 843.769531 701.199219 C 822.65625 718.480469 801.777344 737.421875 781.15625 758.042969 C 760.53125 778.667969 741.351563 799.03125 723.597656 819.203125 C 705.859375 839.332031 690.515625 858.527344 677.550781 876.757813 C 664.597656 894.988281 655.242188 909.859375 649.488281 921.382813 C 637.015625 944.394531 637.253906 958.539063 650.203125 963.832031 C 663.171875 969.09375 680.195313 965.023438 701.292969 951.59375 C 712.800781 946.789063 726.722656 936.46875 743.015625 920.652344 C 759.328125 904.816406 776.113281 885.378906 793.394531 862.382813 C 810.65625 839.347656 827.679688 814.160156 844.484375 786.832031 C 861.273438 759.488281 875.902344 731.414063 888.378906 702.625 C 893.167969 692.085938 897.492188 682.257813 901.332031 673.144531 C 905.164063 664.027344 909.476563 654.183594 914.28125 643.625 C 900.835938 655.148438 888.121094 665.707031 876.140625 675.296875 C 864.140625 684.890625 853.34375 693.527344 843.769531 701.199219 Z M 845.195313 367.726563 C 820.246094 396.515625 799.859375 424.808594 784.039063 452.628906 C 768.203125 480.46875 760.296875 503.007813 760.296875 520.269531 C 760.296875 548.105469 774.195313 555.78125 802.035156 543.285156 C 816.425781 537.550781 833.449219 526.042969 853.125 508.765625 C 872.78125 491.480469 891.976563 472.539063 910.683594 451.917969 C 929.386719 431.292969 945.9375 410.910156 960.332031 390.761719 C 974.722656 370.613281 983.347656 354.777344 986.230469 343.25 C 990.070313 334.628906 997.738281 333.660156 1009.25 340.382813 C 1020.761719 347.105469 1025.558594 357.644531 1023.660156 372.039063 C 1021.71875 385.480469 1017.179688 407.546875 1009.980469 438.238281 C 1002.78125 468.941406 991.984375 506.84375 977.59375 551.925781 C 1010.21875 525.074219 1037.070313 503.957031 1058.191406 488.617188 C 1079.300781 473.273438 1098.011719 455.988281 1114.320313 436.792969 C 1124.878906 424.335938 1133.261719 420.738281 1139.511719 426.015625 C 1145.738281 431.292969 1145 439.203125 1137.328125 449.746094 C 1126.769531 464.136719 1105.679688 484.542969 1074.019531 510.917969 C 1042.351563 537.292969 1004.460938 568.714844 960.332031 605.171875 C 958.394531 611.894531 956.003906 618.378906 953.132813 624.609375 C 950.25 630.851563 947.855469 637.324219 945.9375 644.023438 C 913.3125 727.503906 877.347656 796.824219 838 851.988281 C 798.652344 907.152344 761.246094 946.71875 725.753906 970.703125 C 700.816406 987.015625 677.3125 995.179688 655.242188 995.179688 C 639.902344 995.179688 628.136719 990.613281 619.972656 981.515625 C 611.84375 972.382813 610.164063 958.226563 614.949219 939.046875 C 617.832031 921.769531 625.746094 902.585938 638.679688 881.488281 C 651.644531 860.351563 666.992188 838.546875 684.726563 816.007813 C 702.5 793.460938 722.390625 771.160156 744.457031 749.09375 C 766.523438 727.027344 788.589844 706.40625 810.65625 687.207031 C 826.96875 673.78125 845.910156 658.675781 867.5 641.871094 C 889.089844 625.085938 911.871094 607.089844 935.871094 587.910156 C 945.460938 561.058594 952.894531 537.078125 958.175781 515.960938 C 963.4375 494.84375 967.507813 477.109375 970.394531 462.714844 C 974.234375 445.429688 976.644531 430.5625 977.59375 418.089844 C 958.414063 443.039063 939.214844 466.074219 920.035156 487.171875 C 903.722656 505.402344 886.207031 522.917969 867.5 539.703125 C 848.792969 556.492188 831.277344 568.714844 814.984375 576.382813 C 801.539063 582.15625 789.066406 584.550781 777.558594 583.601563 C 766.046875 582.648438 756.203125 579.289063 748.054688 573.515625 C 739.910156 567.765625 733.898438 560.089844 730.066406 550.5 C 726.246094 540.910156 725.277344 530.351563 727.195313 518.828125 C 728.144531 506.371094 731.03125 492.925781 735.835938 478.53125 C 740.621094 464.136719 746.375 449.761719 753.097656 435.367188 C 759.820313 420.972656 767.019531 407.308594 774.6875 394.359375 C 782.359375 381.410156 790.03125 370.136719 797.703125 360.53125 C 800.589844 354.777344 805.871094 350.703125 813.539063 348.289063 C 821.214844 345.898438 828.152344 345.1875 834.402344 346.136719 C 840.648438 347.105469 845.433594 349.257813 848.792969 352.621094 C 852.15625 355.980469 850.953125 361.003906 845.195313 367.726563 "/>
<g clip-path="url(#clip1)" clip-rule="nonzero">
<path style=" stroke:none;fill-rule:nonzero;fill:rgb(92.89856%,10.998535%,14.099121%);fill-opacity:1;" d="M 888.355469 678.214844 C 886.328125 679.859375 884.328125 681.472656 882.347656 683.054688 C 870.347656 692.648438 859.554688 701.285156 849.988281 708.957031 C 829.234375 725.9375 808.414063 744.839844 788.183594 765.070313 C 767.71875 785.53125 748.5 805.953125 731.054688 825.765625 C 713.703125 845.460938 698.425781 864.550781 685.644531 882.519531 C 673.042969 900.253906 663.867188 914.824219 658.378906 925.824219 L 658.226563 926.121094 C 648.871094 943.371094 650.066406 950.085938 650.65625 951.734375 C 650.863281 952.324219 651.300781 953.546875 653.964844 954.636719 C 656.414063 955.628906 659.09375 956.113281 662.128906 956.113281 C 662.132813 956.113281 662.132813 956.113281 662.132813 956.113281 C 671.117188 956.113281 682.5 951.777344 695.957031 943.214844 L 696.679688 942.753906 L 697.464844 942.425781 C 707.773438 938.121094 720.769531 928.398438 736.09375 913.519531 C 751.902344 898.171875 768.507813 878.953125 785.449219 856.414063 C 802.386719 833.8125 819.402344 808.648438 836.019531 781.625 C 852.46875 754.828125 867.019531 726.914063 879.261719 698.671875 L 879.332031 698.515625 C 882.65625 691.195313 885.636719 684.480469 888.355469 678.214844 Z M 662.132813 975.992188 C 662.132813 975.992188 662.132813 975.992188 662.128906 975.992188 C 656.5625 975.992188 651.296875 975 646.46875 973.039063 C 639.328125 970.121094 634.308594 965.070313 631.9375 958.417969 C 628.253906 948.09375 631.109375 934.480469 640.671875 916.792969 C 646.707031 904.738281 656.121094 889.761719 669.445313 871.003906 C 682.628906 852.476563 698.335938 832.835938 716.140625 812.632813 C 733.859375 792.507813 753.367188 771.777344 774.128906 751.015625 C 794.824219 730.316406 816.140625 710.96875 837.480469 693.507813 C 847.132813 685.769531 857.933594 677.125 869.9375 667.535156 C 881.769531 658.0625 894.515625 647.476563 907.8125 636.078125 L 941.945313 606.816406 L 923.324219 647.738281 C 918.695313 657.910156 914.378906 667.75 910.488281 676.996094 C 906.742188 685.894531 902.480469 695.597656 897.460938 706.660156 C 884.855469 735.734375 869.878906 764.453125 852.953125 792.03125 C 836.015625 819.570313 818.652344 845.246094 801.34375 868.34375 C 783.777344 891.71875 766.484375 911.710938 749.933594 927.777344 C 732.9375 944.28125 718.53125 954.96875 705.925781 960.421875 C 689.292969 970.898438 674.957031 975.992188 662.132813 975.992188 Z M 817.074219 694.792969 C 795.273438 713.765625 773.203125 734.402344 751.484375 756.121094 C 729.882813 777.726563 710.046875 799.941406 692.527344 822.152344 C 675.097656 844.3125 659.824219 866.023438 647.144531 886.6875 C 634.945313 906.589844 627.40625 924.757813 624.746094 940.683594 L 624.589844 941.449219 C 620.671875 957.15625 621.613281 968.414063 627.394531 974.910156 C 633.628906 981.851563 642.746094 985.238281 655.242188 985.238281 C 675.21875 985.238281 697.09375 977.566406 720.25 962.421875 C 754.570313 939.214844 791.464844 900.117188 829.90625 846.21875 C 868.503906 792.105469 904.371094 723.011719 936.515625 640.832031 C 938.546875 633.8125 941.105469 626.953125 944.113281 620.4375 C 946.734375 614.753906 948.976563 608.683594 950.78125 602.421875 L 951.628906 599.46875 L 954 597.511719 C 996.355469 562.519531 1034.601563 530.816406 1067.660156 503.28125 C 1098.511719 477.578125 1119.261719 457.585938 1129.320313 443.867188 C 1133.039063 438.753906 1133.648438 435.960938 1133.738281 435 C 1133.789063 434.394531 1133.808594 434.222656 1133.140625 433.644531 C 1132.238281 433.886719 1128.601563 435.304688 1121.898438 443.214844 C 1105.121094 462.964844 1085.648438 480.9375 1064.019531 496.65625 C 1043.398438 511.644531 1016.441406 532.824219 983.90625 559.597656 L 957.867188 581.03125 L 968.128906 548.902344 C 982.367188 504.296875 993.195313 466.300781 1000.300781 435.964844 C 1007.359375 405.882813 1011.910156 383.917969 1013.808594 370.683594 C 1015.171875 360.320313 1012.210938 353.621094 1004.238281 348.964844 C 999.386719 346.128906 996.96875 345.910156 996.34375 345.910156 C 996.246094 345.910156 996.171875 345.914063 996.121094 345.917969 C 996.015625 346.035156 995.828125 346.28125 995.601563 346.691406 C 992.164063 359.4375 983.261719 375.757813 968.414063 396.539063 C 953.867188 416.902344 936.917969 437.78125 918.042969 458.59375 C 899.25 479.3125 879.613281 498.703125 859.683594 516.222656 C 839.042969 534.359375 821.449219 546.203125 805.90625 552.4375 C 795.984375 556.871094 787.5625 559.027344 780.175781 559.027344 C 780.171875 559.027344 780.171875 559.027344 780.171875 559.027344 C 767.644531 559.027344 760.699219 552.773438 757.082031 547.527344 C 752.558594 540.964844 750.359375 532.050781 750.359375 520.269531 C 750.359375 501.074219 758.550781 477.339844 775.402344 447.714844 C 791.460938 419.480469 812.414063 390.378906 837.6875 361.21875 C 838.765625 359.957031 839.472656 358.96875 839.929688 358.234375 C 838.15625 357.171875 835.796875 356.40625 832.878906 355.957031 C 828.261719 355.253906 822.664063 355.855469 816.5 357.777344 C 811.476563 359.355469 808.226563 361.71875 806.585938 364.984375 L 806.117188 365.917969 L 805.46875 366.730469 C 798.105469 375.953125 790.625 386.953125 783.238281 399.425781 C 775.753906 412.058594 768.640625 425.566406 762.101563 439.574219 C 755.558594 453.582031 749.894531 467.746094 745.265625 481.664063 C 740.730469 495.25 737.988281 508.003906 737.101563 519.582031 L 736.996094 520.460938 C 735.371094 530.234375 736.125 538.855469 739.292969 546.824219 C 742.421875 554.640625 747.164063 560.722656 753.789063 565.402344 C 760.4375 570.113281 768.703125 572.898438 778.375 573.699219 C 788.1875 574.503906 799.117188 572.359375 810.90625 567.320313 C 826.246094 560.070313 843.054688 548.292969 860.863281 532.308594 C 879.214844 515.839844 896.632813 498.421875 912.628906 480.546875 C 931.636719 459.636719 950.824219 436.605469 969.714844 412.035156 L 990.03125 385.601563 L 987.5 418.84375 C 986.527344 431.613281 984.046875 447.0625 980.117188 464.769531 C 977.226563 479.164063 973.089844 497.195313 967.816406 518.363281 C 962.480469 539.703125 954.882813 564.222656 945.230469 591.253906 L 944.28125 593.910156 L 942.074219 595.675781 C 917.085938 615.644531 894.6875 633.320313 873.597656 649.710938 C 852.207031 666.367188 833.191406 681.53125 817.074219 694.792969 Z M 655.242188 1005.121094 C 637.035156 1005.121094 622.679688 999.410156 612.574219 988.152344 C 602.199219 976.492188 599.730469 959.296875 605.214844 937.019531 C 608.347656 918.664063 616.753906 898.242188 630.203125 876.296875 C 643.285156 854.976563 659 832.628906 676.917969 809.859375 C 694.921875 787.023438 715.277344 764.21875 737.429688 742.066406 C 759.511719 719.988281 781.949219 699.011719 804.132813 679.710938 L 804.339844 679.535156 C 820.617188 666.136719 839.8125 650.828125 861.398438 634.027344 C 881.792969 618.167969 903.421875 601.105469 927.457031 581.910156 C 936.445313 556.546875 943.535156 533.558594 948.535156 513.550781 C 953.746094 492.636719 957.820313 474.871094 960.652344 460.757813 L 960.691406 460.558594 C 961.230469 458.140625 961.738281 455.769531 962.21875 453.441406 C 950.609375 467.609375 938.957031 481.128906 927.386719 493.855469 C 910.960938 512.210938 893.027344 530.144531 874.136719 547.101563 C 854.828125 564.429688 836.351563 577.308594 819.21875 585.375 L 818.90625 585.515625 C 804.046875 591.894531 789.855469 594.589844 776.738281 593.503906 C 763.472656 592.40625 751.890625 588.410156 742.3125 581.625 C 732.605469 574.765625 725.375 565.535156 720.835938 554.191406 C 716.394531 543.027344 715.210938 530.734375 717.320313 517.636719 C 718.363281 504.550781 721.417969 490.335938 726.410156 475.386719 C 731.277344 460.746094 737.226563 445.867188 744.09375 431.164063 C 750.910156 416.570313 758.324219 402.484375 766.136719 389.292969 C 773.800781 376.363281 781.601563 364.859375 789.34375 355.078125 C 793.546875 347.390625 800.679688 341.917969 810.5625 338.808594 C 819.664063 335.972656 828.175781 335.140625 835.894531 336.3125 C 844.261719 337.609375 850.957031 340.730469 855.820313 345.59375 C 859.289063 349.0625 865.929688 358.789063 852.746094 374.1875 C 828.285156 402.40625 808.09375 430.433594 792.679688 457.539063 C 777.785156 483.722656 770.230469 504.828125 770.230469 520.269531 C 770.230469 539.152344 776.699219 539.152344 780.171875 539.152344 C 780.171875 539.152344 780.171875 539.152344 780.175781 539.152344 C 783.273438 539.152344 788.878906 538.296875 797.964844 534.21875 L 798.355469 534.054688 C 811.613281 528.769531 827.835938 517.75 846.566406 501.296875 C 865.933594 484.269531 885.027344 465.410156 903.324219 445.242188 C 921.679688 425 938.144531 404.726563 952.246094 384.984375 C 965.828125 365.976563 974.015625 351.121094 976.59375 340.835938 L 976.804688 339.996094 L 977.152344 339.210938 C 980.933594 330.714844 987.75 326.035156 996.34375 326.035156 C 1001.761719 326.035156 1007.621094 327.921875 1014.261719 331.800781 C 1029.28125 340.578125 1035.941406 354.9375 1033.511719 373.339844 L 1033.488281 373.453125 C 1031.511719 387.253906 1026.851563 409.8125 1019.648438 440.507813 C 1014.171875 463.878906 1006.550781 491.664063 996.90625 523.378906 C 1018.570313 505.941406 1036.859375 491.828125 1052.339844 480.574219 C 1072.691406 465.789063 1091 448.894531 1106.738281 430.359375 C 1116.359375 419.011719 1124.820313 413.722656 1133.371094 413.722656 C 1137.941406 413.722656 1142.28125 415.351563 1145.921875 418.425781 C 1150.851563 422.609375 1160.660156 434.582031 1145.359375 455.589844 C 1134.171875 470.851563 1112.921875 491.4375 1080.378906 518.550781 C 1047.898438 545.601563 1010.429688 576.660156 968.984375 610.910156 C 967.074219 617.078125 964.78125 623.070313 962.160156 628.765625 C 959.507813 634.507813 957.265625 640.554688 955.492188 646.757813 L 955.191406 647.644531 C 922.40625 731.527344 885.703125 802.222656 846.089844 857.753906 C 806.238281 913.625 767.625 954.398438 731.3125 978.933594 L 731.191406 979.019531 C 704.722656 996.332031 679.167969 1005.121094 655.242188 1005.121094 "/>
</g>
<path style=" stroke:none;fill-rule:nonzero;fill:rgb(92.89856%,10.998535%,14.099121%);fill-opacity:1;" d="M 1036.488281 695.445313 C 1024.03125 724.234375 1013.949219 748.691406 1006.28125 768.839844 C 998.605469 788.972656 990.460938 811.511719 981.820313 836.460938 C 977.035156 849.890625 970.546875 854.199219 962.382813 849.414063 C 954.238281 844.609375 951.113281 830.707031 953.03125 807.695313 C 954.949219 800.96875 961.175781 785.609375 971.734375 761.644531 C 982.292969 737.660156 994.058594 711.285156 1006.988281 682.496094 C 1019.960938 653.707031 1032.910156 625.410156 1045.839844 597.574219 C 1058.808594 569.753906 1068.171875 547.6875 1073.921875 531.375 C 1090.210938 491.082031 1106.289063 455.113281 1122.121094 423.441406 C 1137.941406 391.785156 1150.179688 366.355469 1158.820313 347.175781 C 1159.769531 343.339844 1162.179688 340.472656 1166.019531 338.554688 C 1169.851563 336.636719 1173.929688 335.90625 1178.238281 336.382813 C 1182.550781 336.855469 1186.148438 338.777344 1189.03125 342.136719 C 1191.921875 345.496094 1192.871094 350.0625 1191.921875 355.816406 C 1188.078125 366.375 1182.328125 378.835938 1174.660156 393.226563 C 1170.808594 400.898438 1166.488281 408.570313 1161.710938 416.242188 C 1177.050781 399.949219 1193.351563 385.554688 1210.628906 373.078125 C 1225.019531 362.519531 1241.070313 352.691406 1258.828125 343.578125 C 1276.578125 334.460938 1294.578125 329.421875 1312.808594 328.472656 C 1328.148438 327.523438 1339.660156 332.800781 1347.328125 344.308594 C 1355 355.816406 1354.53125 375.492188 1345.910156 403.289063 C 1340.128906 422.488281 1332.699219 439.773438 1323.589844 455.113281 C 1314.46875 470.460938 1306.089844 483.410156 1298.410156 493.964844 C 1288.808594 506.441406 1279.210938 517.949219 1269.628906 528.507813 C 1286.890625 520.839844 1304.171875 512.199219 1321.449219 502.589844 C 1335.820313 494.917969 1350.929688 485.5625 1366.769531 474.53125 C 1382.589844 463.496094 1396.269531 451.277344 1407.789063 437.832031 C 1415.460938 430.160156 1421.929688 427.769531 1427.210938 430.65625 C 1432.488281 433.539063 1431.28125 441.6875 1423.609375 455.113281 C 1414.96875 468.558594 1399.628906 483.425781 1377.558594 499.722656 C 1355.5 516.03125 1326.710938 532.34375 1291.21875 548.65625 C 1284.488281 551.542969 1276.109375 555.140625 1266.03125 559.453125 C 1255.941406 563.765625 1245.640625 567.835938 1235.078125 571.671875 C 1224.519531 575.507813 1214.460938 578.867188 1204.871094 581.753906 C 1195.261719 584.640625 1187.589844 586.066406 1181.859375 586.066406 C 1165.519531 586.066406 1157.121094 580.804688 1156.648438 570.246094 C 1156.171875 559.6875 1159.300781 551.050781 1166.019531 544.328125 C 1169.851563 540.492188 1175.371094 537.386719 1182.570313 534.976563 C 1189.761719 532.582031 1196.710938 530.902344 1203.429688 529.953125 C 1210.148438 529 1216.378906 528.035156 1222.128906 527.066406 C 1227.890625 526.117188 1231.25 525.144531 1232.21875 524.179688 C 1237 522.277344 1247.320313 512.199219 1263.160156 493.964844 C 1278.980469 475.738281 1292.171875 454.636719 1302.730469 430.636719 C 1312.308594 408.570313 1317.589844 393.464844 1318.558594 385.316406 C 1319.511719 377.171875 1318.089844 370.6875 1314.25 365.882813 C 1307.53125 361.09375 1296.480469 362.046875 1281.128906 368.765625 C 1265.789063 375.492188 1248.511719 385.078125 1229.328125 397.539063 C 1210.148438 410.011719 1190.480469 428.242188 1170.328125 452.226563 C 1150.179688 476.230469 1133.871094 497.804688 1121.410156 516.980469 L 1036.488281 695.445313 "/>
<path style=" stroke:none;fill-rule:nonzero;fill:rgb(92.89856%,10.998535%,14.099121%);fill-opacity:1;" d="M 962.851563 809.53125 C 960.789063 836.125 966.738281 840.445313 967.429688 840.851563 C 967.742188 841.039063 967.988281 841.15625 968.175781 841.230469 C 968.859375 840.578125 970.519531 838.5625 972.457031 833.125 C 981.121094 808.101563 989.386719 785.257813 996.992188 765.300781 C 1004.679688 745.113281 1014.609375 720.972656 1027.371094 691.496094 L 1027.519531 691.175781 L 1112.71875 512.121094 L 1113.078125 511.570313 C 1125.640625 492.226563 1142.339844 470.109375 1162.71875 445.839844 C 1183.398438 421.222656 1203.980469 402.171875 1223.910156 389.210938 C 1243.429688 376.527344 1261.339844 366.589844 1277.140625 359.667969 C 1287.460938 355.148438 1296.109375 352.953125 1303.601563 352.953125 C 1309.980469 352.953125 1315.511719 354.578125 1320.011719 357.789063 L 1321.148438 358.59375 L 1322.019531 359.683594 C 1327.539063 366.597656 1329.699219 375.609375 1328.429688 386.46875 C 1327.320313 395.816406 1322.050781 411.101563 1311.839844 434.597656 C 1300.921875 459.414063 1287.070313 481.570313 1270.660156 500.476563 C 1250.410156 523.789063 1242.289063 530.328125 1237.300781 532.78125 C 1234.578125 534.574219 1230.609375 535.738281 1223.75 536.871094 C 1217.710938 537.886719 1211.328125 538.871094 1204.820313 539.789063 C 1198.769531 540.644531 1192.339844 542.195313 1185.699219 544.402344 C 1180.011719 546.308594 1175.75 548.648438 1173.039063 551.351563 C 1168.28125 556.117188 1166.21875 561.980469 1166.570313 569.800781 C 1166.660156 571.695313 1166.859375 576.128906 1181.859375 576.128906 C 1185.140625 576.128906 1191.308594 575.453125 1202.011719 572.238281 C 1211.339844 569.429688 1221.320313 566.097656 1231.691406 562.332031 C 1241.949219 558.609375 1252.191406 554.5625 1262.121094 550.3125 C 1272.140625 546.03125 1280.480469 542.449219 1287.179688 539.570313 C 1321.851563 523.628906 1350.28125 507.535156 1371.660156 491.730469 C 1392.511719 476.328125 1407.128906 462.273438 1415.121094 449.957031 C 1417.429688 445.886719 1418.75 442.9375 1419.5 440.875 C 1418.359375 441.644531 1416.890625 442.820313 1415.078125 444.605469 C 1403.140625 458.464844 1388.800781 471.277344 1372.449219 482.683594 C 1356.390625 493.871094 1340.828125 503.5 1326.199219 511.3125 C 1308.789063 520.992188 1291.109375 529.832031 1273.660156 537.589844 L 1230.550781 556.75 L 1262.269531 521.824219 C 1271.601563 511.5625 1281.078125 500.183594 1290.460938 488.011719 C 1297.859375 477.816406 1306.128906 465.039063 1315.039063 450.039063 C 1323.679688 435.488281 1330.871094 418.796875 1336.390625 400.433594 C 1345.949219 369.605469 1343.121094 355.902344 1339.058594 349.820313 C 1333.820313 341.960938 1326.570313 338.300781 1316.25 338.300781 C 1315.328125 338.300781 1314.378906 338.332031 1313.421875 338.390625 C 1296.601563 339.269531 1279.800781 343.988281 1263.371094 352.417969 C 1246.171875 361.242188 1230.410156 370.890625 1216.5 381.09375 C 1199.808594 393.144531 1183.820313 407.25 1168.941406 423.054688 L 1153.269531 410.984375 C 1157.851563 403.652344 1162.058594 396.179688 1165.78125 388.765625 L 1165.890625 388.554688 C 1173.089844 375.046875 1178.578125 363.214844 1182.230469 353.367188 C 1182.441406 351.652344 1182.410156 349.679688 1181.488281 348.609375 C 1180.25 347.160156 1178.949219 346.457031 1177.148438 346.257813 C 1174.75 345.996094 1172.601563 346.375 1170.460938 347.441406 C 1168.78125 348.28125 1168.601563 349.023438 1168.46875 349.566406 L 1168.25 350.4375 L 1167.878906 351.257813 C 1159.261719 370.40625 1146.851563 396.1875 1131.011719 427.882813 C 1115.339844 459.234375 1099.261719 495.234375 1083.210938 534.894531 C 1077.351563 551.464844 1067.808594 573.964844 1054.851563 601.773438 C 1041.820313 629.816406 1028.761719 658.351563 1016.050781 686.574219 C 1002.269531 717.257813 990.746094 743.125 980.832031 765.644531 C 968.796875 792.960938 964.378906 804.597656 962.851563 809.53125 Z M 968.476563 861.238281 C 964.78125 861.238281 961.042969 860.140625 957.355469 857.984375 C 941.558594 848.671875 941.671875 824.347656 943.128906 806.867188 L 943.207031 805.902344 L 943.476563 804.96875 C 945.558594 797.667969 951.828125 782.183594 962.640625 757.636719 C 972.574219 735.074219 984.117188 709.164063 997.925781 678.421875 C 1010.679688 650.121094 1023.761719 621.515625 1036.828125 593.386719 C 1049.589844 566.027344 1058.910156 544.058594 1064.550781 528.070313 L 1064.699219 527.652344 C 1080.96875 487.425781 1097.300781 450.867188 1113.238281 418.996094 C 1128.761719 387.929688 1140.941406 362.640625 1149.441406 343.804688 C 1151.261719 337.609375 1155.429688 332.738281 1161.570313 329.667969 C 1167.121094 326.894531 1173.140625 325.824219 1179.320313 326.503906 C 1186.109375 327.25 1192.070313 330.417969 1196.570313 335.664063 C 1199.921875 339.5625 1203.53125 346.5 1201.730469 357.4375 L 1201.570313 358.34375 L 1201.261719 359.210938 C 1199.890625 362.988281 1198.269531 367.019531 1196.421875 371.289063 C 1199.191406 369.144531 1201.988281 367.054688 1204.808594 365.023438 C 1219.5 354.25 1236.171875 344.046875 1254.289063 334.738281 C 1273.230469 325.015625 1292.75 319.566406 1312.289063 318.550781 C 1313.558594 318.46875 1314.929688 318.425781 1316.25 318.425781 C 1333.109375 318.425781 1346.71875 325.472656 1355.601563 338.796875 C 1365.109375 353.066406 1365.050781 375.121094 1355.398438 406.234375 C 1349.441406 426.070313 1341.601563 444.25 1332.128906 460.1875 C 1323.039063 475.480469 1314.550781 488.605469 1306.878906 499.210938 C 1310.140625 497.472656 1313.378906 495.703125 1316.621094 493.90625 L 1316.769531 493.820313 C 1330.730469 486.371094 1345.640625 477.136719 1361.089844 466.378906 C 1376.179688 455.851563 1389.359375 444.070313 1400.25 431.367188 L 1400.769531 430.808594 C 1408.351563 423.222656 1415.5 419.535156 1422.609375 419.535156 C 1425.910156 419.535156 1429.058594 420.34375 1431.980469 421.933594 C 1435.820313 424.035156 1438.480469 427.382813 1439.679688 431.613281 C 1441.699219 438.738281 1439.398438 447.507813 1432.238281 460.042969 L 1431.96875 460.488281 C 1422.578125 475.097656 1406.710938 490.546875 1383.460938 507.714844 C 1360.96875 524.34375 1331.328125 541.15625 1295.371094 557.6875 L 1295.140625 557.785156 C 1288.410156 560.671875 1280.019531 564.273438 1269.929688 568.589844 C 1259.660156 572.980469 1249.078125 577.160156 1238.480469 581.011719 C 1227.761719 584.902344 1217.421875 588.355469 1207.730469 591.269531 C 1197.128906 594.457031 1188.671875 596.003906 1181.859375 596.003906 C 1171.691406 596.003906 1163.890625 594.214844 1158.03125 590.535156 C 1151.011719 586.136719 1147.101563 579.277344 1146.71875 570.691406 C 1146.121094 557.277344 1150.25 546.046875 1158.988281 537.300781 C 1163.960938 532.335938 1170.628906 528.492188 1179.410156 525.550781 C 1187.199219 522.960938 1194.808594 521.132813 1202.039063 520.113281 C 1208.378906 519.214844 1214.589844 518.257813 1220.480469 517.265625 C 1223.679688 516.738281 1225.421875 516.308594 1226.28125 516.0625 L 1226.640625 515.699219 L 1228.550781 514.945313 C 1229.390625 514.535156 1235.121094 511.085938 1255.660156 487.449219 C 1270.761719 470.050781 1283.53125 449.589844 1293.628906 426.636719 C 1305.019531 400.425781 1308.109375 389.058594 1308.691406 384.144531 C 1309.230469 379.589844 1308.769531 375.976563 1307.351563 373.386719 C 1306.359375 373.011719 1305.109375 372.828125 1303.601563 372.828125 C 1300.421875 372.828125 1294.628906 373.703125 1285.121094 377.867188 C 1270.308594 384.359375 1253.359375 393.78125 1234.738281 405.875 C 1216.460938 417.761719 1197.351563 435.507813 1177.941406 458.621094 C 1158.28125 482.039063 1142.179688 503.3125 1130.101563 521.847656 L 1045.539063 699.554688 C 1033.109375 728.28125 1023.03125 752.777344 1015.558594 772.371094 C 1008.03125 792.148438 999.835938 814.800781 991.207031 839.710938 C 986.105469 854.027344 978.46875 861.238281 968.476563 861.238281 "/>
<path style=" stroke:none;fill-rule:nonzero;fill:rgb(92.89856%,10.998535%,14.099121%);fill-opacity:1;" d="M 1483.96875 393.226563 C 1476.289063 399.949219 1471.25 405.230469 1468.859375 409.0625 C 1466.449219 412.898438 1461.898438 420.097656 1455.199219 430.636719 C 1459.980469 437.359375 1467.398438 440.246094 1477.480469 439.277344 C 1487.570313 438.328125 1497.890625 433.996094 1508.441406 426.324219 C 1522.820313 415.765625 1535.53125 403.308594 1546.570313 388.917969 C 1557.601563 374.523438 1560.699219 363.488281 1555.921875 355.816406 C 1552.078125 350.0625 1542.230469 351.980469 1526.421875 361.570313 C 1510.578125 371.160156 1496.429688 381.71875 1483.96875 393.226563 Z M 1673.941406 430.636719 C 1681.609375 422.964844 1686.628906 422.25 1689.039063 428.480469 C 1691.441406 434.726563 1691.671875 440.71875 1689.761719 446.472656 C 1684 456.082031 1672.96875 467.828125 1656.660156 481.726563 C 1640.351563 495.644531 1622.121094 509.074219 1601.96875 522.023438 C 1581.820313 534.992188 1560.960938 546.972656 1539.371094 558.007813 C 1517.78125 569.042969 1497.890625 576.476563 1479.648438 580.3125 C 1468.128906 583.199219 1456.621094 584.386719 1445.109375 583.910156 C 1433.601563 583.4375 1423.050781 580.789063 1413.460938 576 C 1403.851563 571.214844 1396.421875 564.019531 1391.140625 554.410156 C 1385.859375 544.820313 1384.179688 532.820313 1386.109375 518.425781 C 1390.898438 486.769531 1400.75 457.507813 1415.609375 430.636719 C 1430.480469 403.785156 1450.390625 379.308594 1475.351563 357.242188 C 1495.480469 339.011719 1513.46875 328.234375 1529.300781 324.875 C 1545.121094 321.515625 1559.75 322.242188 1573.199219 327.03125 C 1582.789063 330.863281 1588.070313 338.0625 1589.019531 348.621094 C 1589.96875 359.179688 1587.570313 371.160156 1581.820313 384.585938 C 1576.070313 398.03125 1567.679688 411.21875 1556.648438 424.167969 C 1545.621094 437.121094 1533.851563 447.441406 1521.398438 455.113281 C 1506.03125 463.753906 1489.238281 469.746094 1471.019531 473.105469 C 1452.789063 476.464844 1440.78125 474.785156 1435.050781 468.066406 C 1433.109375 474.785156 1430.25 480.542969 1426.410156 485.324219 C 1422.570313 490.128906 1419.691406 501.164063 1417.769531 518.425781 C 1417.769531 528.035156 1419.191406 534.992188 1422.078125 539.304688 C 1424.96875 543.613281 1428.558594 546.738281 1432.878906 548.65625 C 1437.191406 550.574219 1441.988281 551.527344 1447.269531 551.527344 C 1452.550781 551.527344 1458.058594 551.527344 1463.820313 551.527344 C 1477.25 550.574219 1494.511719 545.292969 1515.621094 535.707031 C 1536.738281 526.117188 1557.601563 515.082031 1578.21875 502.605469 C 1598.851563 490.128906 1618.03125 477.179688 1635.78125 463.734375 C 1653.53125 450.308594 1666.25 439.277344 1673.941406 430.636719 "/>
<g clip-path="url(#clip2)" clip-rule="nonzero">
<path style=" stroke:none;fill-rule:nonzero;fill:rgb(92.89856%,10.998535%,14.099121%);fill-opacity:1;" d="M 1468.21875 428.671875 C 1469.671875 429.191406 1471.480469 429.523438 1473.808594 429.523438 C 1474.671875 429.523438 1475.578125 429.476563 1476.53125 429.386719 C 1484.769531 428.609375 1493.53125 424.875 1502.601563 418.289063 C 1516.148438 408.339844 1528.300781 396.414063 1538.679688 382.871094 C 1546.421875 372.769531 1548.601563 366.078125 1548.03125 362.613281 C 1545.898438 362.9375 1541 364.351563 1531.570313 370.070313 C 1516.371094 379.269531 1502.628906 389.515625 1490.710938 400.527344 L 1490.519531 400.699219 C 1481.441406 408.648438 1478.339844 412.648438 1477.289063 414.324219 C 1475.46875 417.226563 1472.449219 422.007813 1468.21875 428.671875 Z M 1473.808594 449.398438 C 1462.390625 449.398438 1453.148438 444.902344 1447.101563 436.398438 L 1443.21875 430.949219 L 1446.808594 425.304688 C 1453.5 414.785156 1458.039063 407.601563 1460.449219 403.777344 C 1463.390625 399.058594 1468.761719 393.347656 1477.320313 385.835938 C 1490.191406 373.960938 1504.980469 362.933594 1521.269531 353.070313 C 1533 345.960938 1541.839844 342.644531 1549.070313 342.644531 C 1555.519531 342.644531 1560.890625 345.363281 1564.191406 350.304688 L 1564.351563 350.558594 C 1571.539063 362.078125 1568.199219 377.015625 1554.449219 394.960938 C 1542.929688 409.996094 1529.429688 423.246094 1514.328125 434.335938 C 1502.300781 443.078125 1490.230469 448.058594 1478.410156 449.171875 C 1476.851563 449.320313 1475.300781 449.398438 1473.808594 449.398438 Z M 1395.949219 519.828125 C 1394.328125 531.960938 1395.640625 541.984375 1399.839844 549.617188 C 1404.171875 557.496094 1410.070313 563.210938 1417.890625 567.105469 C 1426.199219 571.257813 1435.5 573.566406 1445.519531 573.980469 C 1456.070313 574.417969 1466.730469 573.300781 1477.238281 570.671875 L 1477.609375 570.589844 C 1494.871094 566.953125 1514.128906 559.746094 1534.851563 549.15625 C 1556.109375 538.292969 1576.878906 526.355469 1596.589844 513.667969 C 1616.300781 501 1634.339844 487.710938 1650.210938 474.167969 C 1665.039063 461.527344 1675.261719 450.839844 1680.609375 442.367188 C 1681.019531 440.816406 1681.171875 439.226563 1681.058594 437.585938 C 1672.828125 446.746094 1659.96875 457.898438 1641.769531 471.664063 C 1623.851563 485.234375 1604.191406 498.507813 1583.371094 511.109375 C 1562.488281 523.738281 1541.078125 535.054688 1519.730469 544.753906 C 1497.308594 554.9375 1479.25 560.394531 1464.519531 561.433594 L 1463.820313 561.460938 L 1447.269531 561.460938 C 1440.601563 561.460938 1434.390625 560.207031 1428.839844 557.734375 C 1422.808594 555.054688 1417.761719 550.714844 1413.820313 544.832031 C 1409.789063 538.8125 1407.828125 530.171875 1407.828125 518.425781 L 1407.828125 517.875 L 1407.890625 517.328125 C 1410.101563 497.453125 1413.421875 485.671875 1418.640625 479.125 C 1421.628906 475.402344 1423.929688 470.761719 1425.5 465.316406 L 1430.609375 447.558594 L 1442.609375 461.613281 C 1445.570313 465.082031 1455.539063 465.851563 1469.210938 463.332031 C 1486.210938 460.199219 1502.078125 454.554688 1516.351563 446.550781 C 1527.820313 439.457031 1538.828125 429.761719 1549.078125 417.726563 C 1559.410156 405.605469 1567.351563 393.140625 1572.691406 380.675781 C 1577.75 368.851563 1579.921875 358.367188 1579.121094 349.511719 C 1578.511719 342.730469 1575.679688 338.777344 1569.679688 336.324219 C 1558.050781 332.230469 1545.210938 331.652344 1531.371094 334.59375 C 1517.320313 337.578125 1500.710938 347.675781 1482.019531 364.605469 L 1481.929688 364.683594 C 1457.949219 385.886719 1438.570313 409.695313 1424.308594 435.449219 C 1410.078125 461.164063 1400.539063 489.554688 1395.949219 519.828125 Z M 1450.039063 593.945313 C 1448.269531 593.945313 1446.480469 593.910156 1444.699219 593.839844 C 1431.859375 593.308594 1419.851563 590.300781 1409.019531 584.894531 C 1397.628906 579.214844 1388.679688 570.570313 1382.429688 559.191406 C 1376.121094 547.742188 1374.050781 533.578125 1376.269531 517.101563 L 1376.289063 516.941406 C 1381.21875 484.289063 1391.53125 453.636719 1406.921875 425.828125 C 1422.28125 398.09375 1443.070313 372.53125 1468.71875 349.835938 C 1490.339844 330.265625 1509.480469 318.925781 1527.238281 315.152344 C 1534.390625 313.636719 1541.449219 312.863281 1548.230469 312.863281 C 1558.050781 312.863281 1567.570313 314.480469 1576.53125 317.667969 L 1576.890625 317.800781 C 1590.011719 323.050781 1597.628906 333.398438 1598.910156 347.726563 C 1600.011719 359.902344 1597.328125 373.621094 1590.949219 388.5 C 1584.828125 402.800781 1575.839844 416.96875 1564.210938 430.613281 C 1552.558594 444.296875 1539.898438 455.382813 1526.601563 463.574219 L 1526.261719 463.773438 C 1510.03125 472.90625 1492.050781 479.332031 1472.820313 482.878906 C 1466.179688 484.101563 1460.140625 484.722656 1454.859375 484.722656 C 1449.230469 484.722656 1444.25 484.011719 1439.949219 482.597656 C 1438.28125 485.832031 1436.339844 488.820313 1434.160156 491.542969 C 1433.519531 492.347656 1430.140625 497.523438 1427.710938 518.964844 C 1427.769531 528.867188 1429.558594 532.613281 1430.339844 533.777344 C 1432.179688 536.53125 1434.328125 538.429688 1436.910156 539.578125 C 1439.910156 540.910156 1443.398438 541.585938 1447.269531 541.585938 L 1463.449219 541.585938 C 1475.578125 540.660156 1491.738281 535.636719 1511.511719 526.65625 C 1532.148438 517.28125 1552.871094 506.328125 1573.078125 494.105469 C 1593.320313 481.859375 1612.398438 468.976563 1629.78125 455.816406 C 1646.921875 442.851563 1659.28125 432.160156 1666.511719 424.027344 L 1666.910156 423.613281 C 1673.21875 417.296875 1678.730469 414.355469 1684.21875 414.355469 C 1690.488281 414.355469 1695.75 418.292969 1698.308594 424.894531 C 1701.550781 433.347656 1701.839844 441.652344 1699.179688 449.613281 L 1698.839844 450.648438 L 1698.28125 451.578125 C 1691.910156 462.207031 1680.410156 474.542969 1663.101563 489.289063 C 1646.558594 503.40625 1627.800781 517.230469 1607.339844 530.382813 C 1587.078125 543.421875 1565.730469 555.695313 1543.890625 566.859375 C 1521.679688 578.203125 1500.820313 585.992188 1481.878906 590 C 1471.351563 592.617188 1460.640625 593.945313 1450.039063 593.945313 "/>
</g>
</g>
</svg>
